<mxfile host="app.diagrams.net" agent="Mozilla/5.0 (Windows NT 10.0; Win64; x64) AppleWebKit/537.36 (KHTML, like Gecko) Chrome/136.0.0.0 Safari/537.36" version="27.0.6">
  <diagram name="Page-1" id="kve5b7I2XgXeYM0ZyHye">
    <mxGraphModel dx="957" dy="570" grid="1" gridSize="10" guides="1" tooltips="1" connect="1" arrows="1" fold="1" page="1" pageScale="1" pageWidth="850" pageHeight="1100" math="0" shadow="0">
      <root>
        <mxCell id="0" />
        <mxCell id="1" parent="0" />
        <mxCell id="2RQSJuwpSgqiVC2aCieN-11" value="" style="edgeStyle=orthogonalEdgeStyle;rounded=0;orthogonalLoop=1;jettySize=auto;html=1;" edge="1" parent="1" source="2RQSJuwpSgqiVC2aCieN-1">
          <mxGeometry relative="1" as="geometry">
            <mxPoint x="410" y="100" as="targetPoint" />
          </mxGeometry>
        </mxCell>
        <mxCell id="2RQSJuwpSgqiVC2aCieN-1" value="&lt;font&gt;Mulai&lt;/font&gt;" style="rounded=1;whiteSpace=wrap;html=1;" vertex="1" parent="1">
          <mxGeometry x="350" y="20" width="120" height="60" as="geometry" />
        </mxCell>
        <mxCell id="2RQSJuwpSgqiVC2aCieN-5" value="" style="edgeStyle=orthogonalEdgeStyle;rounded=0;orthogonalLoop=1;jettySize=auto;html=1;" edge="1" parent="1" target="2RQSJuwpSgqiVC2aCieN-4">
          <mxGeometry relative="1" as="geometry">
            <mxPoint x="670" y="380" as="sourcePoint" />
          </mxGeometry>
        </mxCell>
        <mxCell id="2RQSJuwpSgqiVC2aCieN-7" value="" style="edgeStyle=orthogonalEdgeStyle;rounded=0;orthogonalLoop=1;jettySize=auto;html=1;" edge="1" parent="1" source="2RQSJuwpSgqiVC2aCieN-4">
          <mxGeometry relative="1" as="geometry">
            <mxPoint x="670" y="480" as="targetPoint" />
          </mxGeometry>
        </mxCell>
        <mxCell id="2RQSJuwpSgqiVC2aCieN-8" value="Selesai" style="whiteSpace=wrap;html=1;rounded=1;" vertex="1" parent="1">
          <mxGeometry x="350" y="430" width="120" height="60" as="geometry" />
        </mxCell>
        <mxCell id="2RQSJuwpSgqiVC2aCieN-14" style="edgeStyle=orthogonalEdgeStyle;rounded=0;orthogonalLoop=1;jettySize=auto;html=1;entryX=0.5;entryY=0;entryDx=0;entryDy=0;" edge="1" parent="1" target="2RQSJuwpSgqiVC2aCieN-2">
          <mxGeometry relative="1" as="geometry">
            <mxPoint x="670" y="300" as="sourcePoint" />
          </mxGeometry>
        </mxCell>
        <mxCell id="2RQSJuwpSgqiVC2aCieN-17" value="" style="edgeStyle=orthogonalEdgeStyle;rounded=0;orthogonalLoop=1;jettySize=auto;html=1;" edge="1" parent="1" source="2RQSJuwpSgqiVC2aCieN-15" target="2RQSJuwpSgqiVC2aCieN-16">
          <mxGeometry relative="1" as="geometry" />
        </mxCell>
        <mxCell id="2RQSJuwpSgqiVC2aCieN-15" value="Data" style="shape=parallelogram;perimeter=parallelogramPerimeter;whiteSpace=wrap;html=1;fixedSize=1;" vertex="1" parent="1">
          <mxGeometry x="350" y="100" width="120" height="50" as="geometry" />
        </mxCell>
        <mxCell id="2RQSJuwpSgqiVC2aCieN-19" value="" style="edgeStyle=orthogonalEdgeStyle;rounded=0;orthogonalLoop=1;jettySize=auto;html=1;" edge="1" parent="1" source="2RQSJuwpSgqiVC2aCieN-16" target="2RQSJuwpSgqiVC2aCieN-18">
          <mxGeometry relative="1" as="geometry" />
        </mxCell>
        <mxCell id="2RQSJuwpSgqiVC2aCieN-16" value="Cleaning" style="whiteSpace=wrap;html=1;" vertex="1" parent="1">
          <mxGeometry x="350" y="180" width="120" height="60" as="geometry" />
        </mxCell>
        <mxCell id="2RQSJuwpSgqiVC2aCieN-21" value="" style="edgeStyle=orthogonalEdgeStyle;rounded=0;orthogonalLoop=1;jettySize=auto;html=1;" edge="1" parent="1" source="2RQSJuwpSgqiVC2aCieN-18" target="2RQSJuwpSgqiVC2aCieN-20">
          <mxGeometry relative="1" as="geometry" />
        </mxCell>
        <mxCell id="2RQSJuwpSgqiVC2aCieN-18" value="Data Transformation" style="whiteSpace=wrap;html=1;" vertex="1" parent="1">
          <mxGeometry x="350" y="260" width="120" height="60" as="geometry" />
        </mxCell>
        <mxCell id="2RQSJuwpSgqiVC2aCieN-22" style="edgeStyle=orthogonalEdgeStyle;rounded=0;orthogonalLoop=1;jettySize=auto;html=1;entryX=0.5;entryY=0;entryDx=0;entryDy=0;" edge="1" parent="1" source="2RQSJuwpSgqiVC2aCieN-20" target="2RQSJuwpSgqiVC2aCieN-8">
          <mxGeometry relative="1" as="geometry" />
        </mxCell>
        <mxCell id="2RQSJuwpSgqiVC2aCieN-20" value="Feature Engineering" style="whiteSpace=wrap;html=1;" vertex="1" parent="1">
          <mxGeometry x="350" y="340" width="120" height="60" as="geometry" />
        </mxCell>
      </root>
    </mxGraphModel>
  </diagram>
</mxfile>
